<?xml version="1.0" standalone="no"?>
<!DOCTYPE svg PUBLIC "-//W3C//DTD SVG 20010904//EN"
 "http://www.w3.org/TR/2001/REC-SVG-20010904/DTD/svg10.dtd">
<svg version="1.0" xmlns="http://www.w3.org/2000/svg"
 width="564.000000pt" height="500.000000pt" viewBox="0 0 564.000000 500.000000"
 preserveAspectRatio="xMidYMid meet">

<g transform="translate(0.000000,500.000000) scale(0.100000,-0.100000)"
fill="#64ffda" stroke="none">
<path d="M0 2500 l0 -2500 2820 0 2820 0 0 2500 0 2500 -2820 0 -2820 0 0
-2500z m1781 1996 c413 -26 701 -284 786 -703 17 -82 18 -176 18 -1323 0
-1128 -1 -1242 -17 -1317 -34 -161 -95 -299 -180 -410 -90 -118 -259 -222
-434 -268 -172 -46 -438 -46 -620 0 -88 22 -250 106 -326 169 -148 123 -252
334 -288 581 -6 43 -10 522 -10 1251 0 1306 -2 1271 64 1466 113 335 381 528
771 557 55 4 111 6 125 5 14 -2 64 -5 111 -8z m1851 -883 l3 -836 395 836 395
837 308 0 c169 0 307 -2 307 -4 0 -3 -164 -328 -365 -723 -309 -607 -365 -723
-360 -748 3 -16 171 -581 374 -1255 l368 -1225 -320 -3 c-176 -1 -322 -1 -323
1 -2 2 -122 398 -266 880 -144 482 -264 877 -267 877 -3 0 -61 -114 -129 -253
l-122 -252 0 -627 0 -628 -310 0 -310 0 0 1980 0 1980 310 0 310 0 2 -837z"/>
<path d="M1529 3926 c-88 -31 -131 -74 -171 -168 l-23 -53 0 -1235 0 -1235 28
-61 c34 -74 74 -115 142 -146 72 -32 218 -32 290 0 91 42 143 113 165 227 8
44 10 388 8 1255 l-3 1195 -22 55 c-30 73 -90 134 -159 160 -64 23 -197 27
-255 6z"/>
</g>
</svg>
